<?xml version="1.0" standalone="no"?>
<!DOCTYPE svg PUBLIC "-//W3C//DTD SVG 20010904//EN"
 "http://www.w3.org/TR/2001/REC-SVG-20010904/DTD/svg10.dtd">
<svg version="1.0" xmlns="http://www.w3.org/2000/svg"
 width="700.000000pt" height="700.000000pt" viewBox="0 0 700.000000 700.000000"
 preserveAspectRatio="xMidYMid meet">
<metadata>
Created by potrace 1.11, written by Peter Selinger 2001-2013
</metadata>
<g transform="translate(0.000000,700.000000) scale(0.100000,-0.100000)"
fill="#000000" stroke="none">
<path d="M3225 6989 c-707 -60 -1328 -303 -1895 -743 -135 -105 -386 -349
-509 -496 -443 -528 -707 -1138 -797 -1845 -25 -194 -25 -614 0 -810 86 -680
331 -1262 755 -1795 99 -124 400 -426 521 -521 532 -420 1084 -656 1755 -750
193 -27 522 -36 722 -19 1063 87 2019 643 2615 1520 320 470 507 965 585 1546
24 183 24 635 -1 829 -89 706 -357 1324 -801 1850 -367 435 -855 788 -1376
996 -489 194 -1063 281 -1574 238z m375 -837 l95 -59 99 34 c55 18 107 33 116
33 8 0 49 -34 90 -76 l75 -76 85 7 c47 3 99 8 116 11 30 6 33 3 95 -94 l63
-99 110 -12 c61 -7 114 -15 117 -19 4 -4 21 -47 38 -96 17 -49 36 -96 40 -104
5 -9 55 -32 112 -52 l104 -37 13 -104 c8 -57 15 -110 18 -117 2 -6 43 -37 91
-68 48 -31 92 -60 96 -64 4 -4 3 -58 -4 -119 l-12 -113 82 -82 82 -82 -36 -98
c-19 -54 -35 -106 -35 -115 0 -9 25 -56 55 -106 30 -49 55 -93 55 -97 0 -5
-25 -48 -55 -97 -30 -49 -55 -95 -55 -103 0 -8 15 -59 34 -113 l34 -100 -81
-82 -80 -82 12 -113 11 -113 -27 -22 -28 -23 188 0 187 0 0 -135 0 -135 -1000
0 -1000 0 0 -32 c1 -29 6 -36 43 -53 128 -61 128 -270 0 -330 -40 -18 -43 -23
-43 -57 0 -36 2 -38 31 -38 45 0 145 -28 199 -55 61 -31 150 -112 189 -173 86
-134 107 -349 38 -397 -31 -22 -107 -19 -222 10 -55 14 -130 28 -167 32 l-68
6 0 -97 0 -96 1000 0 1000 0 0 -130 0 -130 -2000 0 -2000 0 0 905 0 906 190
-3 c105 -2 190 -1 190 2 0 3 -14 13 -31 23 -27 15 -30 21 -25 50 3 17 8 70 11
117 l7 85 -80 79 -80 78 34 101 c19 56 34 108 34 116 0 8 -25 54 -55 104 -30
49 -55 91 -55 94 0 3 26 49 58 102 l59 96 -34 100 c-18 54 -33 106 -33 114 0
9 34 50 77 93 l76 77 -12 113 c-11 112 -11 113 11 128 13 8 57 38 98 65 l75
50 13 110 c8 60 19 113 25 117 6 4 52 21 102 39 49 17 94 36 100 41 5 4 26 54
46 111 l36 102 115 14 115 13 62 98 61 97 48 -4 c26 -3 77 -8 114 -12 l67 -7
78 78 c43 43 85 78 94 78 10 0 61 -15 114 -34 l98 -34 96 59 c53 32 98 59 101
59 3 0 48 -26 100 -58z m345 -3154 c57 -45 82 -157 51 -231 -20 -48 -80 -97
-119 -97 -77 0 -136 77 -137 178 0 100 56 172 134 172 29 0 52 -7 71 -22z
m245 -303 c65 -34 98 -146 66 -229 -23 -59 -76 -106 -120 -106 -74 0 -137 78
-138 169 0 69 17 115 58 151 39 34 86 40 134 15z"/>
<path d="M3500 5648 l0 -195 -92 -6 c-492 -33 -910 -416 -998 -914 -16 -90
-13 -294 5 -389 41 -217 139 -406 294 -565 l76 -79 972 0 972 0 29 43 c49 70
121 223 157 331 60 180 70 248 70 476 0 178 -3 219 -23 310 -88 393 -319 727
-652 943 -47 30 -107 66 -135 79 -168 84 -393 145 -572 155 l-103 6 0 -195z"/>
</g>
</svg>
